<svg id="Capa_1" data-name="Capa 1" xmlns="http://www.w3.org/2000/svg" viewBox="0 0 2353.23 495.65"><defs><style>.cls-1{fill:#d80027;}.cls-2{isolation:isolate;}</style></defs><path class="cls-1" d="M482,95a40.28,40.28,0,1,0-40.28,40.28A40.33,40.33,0,0,0,482,95Zm-59.31,0a19,19,0,1,1,19,19A19,19,0,0,1,422.68,95Zm-9.89,140.9c4.18,8.78,10.51,22.05,28.92,22.05s24.73-13.27,28.92-22c.54-1.14,11.06-21.91,11.06-21.91,22.65-44.51,46.81-94.08,46.81-119a86.79,86.79,0,0,0-173.58,0c0,24.92,24.16,74.49,46.8,119C401.72,214,412.24,234.74,412.79,235.87ZM441.71,29.43A65.61,65.61,0,0,1,507.25,95c0,21.91-30.05,81-44.5,109.36,0,0-10.69,21.12-11.3,22.4-4.26,8.92-5.26,9.94-9.74,9.94s-5.49-1-9.74-9.94c-.6-1.28-11.3-22.4-11.3-22.4C406.23,176,376.17,116.88,376.17,95A65.61,65.61,0,0,1,441.71,29.43Zm42.41,224.65a10.62,10.62,0,0,0-10.63,10.62A217.49,217.49,0,0,1,467.64,315a982.05,982.05,0,0,1-127.77,18.65c1.67-22.2,2.54-45.32,2.54-68.91,0-20.4-.65-40.45-1.91-59.86q5-.45,10-1a10.63,10.63,0,1,0-2.16-21.14c-3.16.33-6.32.63-9.5.92-4.5-50.11-13.14-94.93-25.05-129q6.27,1.72,12.44,3.85a10.63,10.63,0,0,0,6.89-20.11,240.38,240.38,0,0,0-119.89-9.09c-.31,0-.62.09-.93.16C133.75,43.93,68.48,96.91,36.92,168a10.51,10.51,0,0,0-.83,1.87A239.44,239.44,0,0,0,24.5,326.14c.08.37.18.74.29,1.1,23.87,88,96.83,156,187.54,172.66.31.07.62.13.93.17a240.55,240.55,0,0,0,84.73,0c.31-.05.61-.1.91-.17,90.71-16.65,163.69-84.68,187.55-172.69a9,9,0,0,0,.29-1,238.68,238.68,0,0,0,8-61.46A10.62,10.62,0,0,0,484.12,254.08Zm-163,10.62c0,24.19-.93,47.84-2.69,70.41Q287.28,337,255.62,337t-62.85-1.85c-1.77-22.57-2.69-46.22-2.69-70.41,0-19.84.62-39.33,1.82-58.15q31.41,2.1,63.72,2.11c21.34,0,42.67-.72,63.71-2.14C320.54,225.35,321.16,244.84,321.16,264.7Zm-99-215.3a219.59,219.59,0,0,1,66.93,0c13.79,33.28,23.73,81.16,28.63,135.94-20.51,1.38-41.29,2.08-62.09,2.08q-31.47,0-62.09-2C198.43,130.58,208.37,82.69,222.15,49.4ZM197.4,54.73c-11.9,34-20.53,78.86-25,129A810.55,810.55,0,0,1,61.42,166,218.9,218.9,0,0,1,197.4,54.73ZM181,410.54A165,165,0,0,1,115.18,349q28.77,3.86,58.08,6.11C175.24,374.56,177.85,393.15,181,410.54ZM37.75,264.7a216.71,216.71,0,0,1,14.81-79,829.31,829.31,0,0,0,118.18,19.15c-1.26,19.39-1.91,39.43-1.91,59.82,0,23.58.87,46.71,2.54,68.9q-34.23-2.75-67.72-7.74A162.85,162.85,0,0,1,91.8,264.71a10.63,10.63,0,1,0-21.25,0A184.5,184.5,0,0,0,79.62,322q-18.15-3.17-36-7A217.5,217.5,0,0,1,37.75,264.7Zm12.73,73.41q19.07,3.87,38.46,7a186.12,186.12,0,0,0,97.47,91.25,380.64,380.64,0,0,0,11,38.32A218.81,218.81,0,0,1,50.48,338.11ZM289.09,480a220.08,220.08,0,0,1-66.94,0,291.94,291.94,0,0,1-11.92-35.87,184.15,184.15,0,0,0,45.39,5.64,10.63,10.63,0,1,0,0-21.25,163,163,0,0,1-51.05-8.15,637.53,637.53,0,0,1-9.83-63.87,1084.59,1084.59,0,0,0,121.76,0C311.27,406.08,301.82,449.27,289.09,480Zm24.75-5.33c11.15-31.9,19.44-73.27,24.14-119.6a1010.73,1010.73,0,0,0,122.79-17A218.88,218.88,0,0,1,313.84,474.68Z" transform="translate(-16.5 -8.18)"/><g class="cls-2"><path class="cls-1" d="M716.52,328.87c0,45.29-34.93,74-86.44,74-27.82,0-53-8.88-71-21l17.76-34.63c14.51,10.07,32.27,16,49.43,16,24.57,0,39.37-13,39.37-32.86V313.48c-10.36,13.61-26.05,21.31-45.88,21.31-40.26,0-68.67-30.79-68.67-77.26,0-45.29,27.53-75.48,67.49-75.48,20.42-.3,36.41,7.4,47.06,21.31V183.83h50.92ZM665.6,259c0-23.38-13.32-39.07-33.15-39.07-20.13,0-33.74,16-33.74,39.07,0,22.79,13.61,38.78,33.74,38.78C652.28,297.79,665.6,281.8,665.6,259Z" transform="translate(-16.5 -8.18)"/><path class="cls-1" d="M906,277.37H793.77c5,18.94,18.65,29.6,37.6,29.6,13.91,0,27.53-5.63,38.18-16.28L896.49,317c-16.28,17.76-40.26,28.12-69.56,28.12-52.1,0-84.66-32.56-84.66-81.11,0-49.43,33.74-82,83.18-82C881.69,182.05,909.51,219.05,906,277.37Zm-49.14-27.53c0-19.54-12.43-32.27-30.78-32.27-17.76,0-29.9,13-33.15,32.27Z" transform="translate(-16.5 -8.18)"/><path class="cls-1" d="M1094.81,263.45c0,49.14-34.93,81.7-87,81.7-52.4,0-87.32-32.56-87.32-81.7s34.92-81.4,87.32-81.4C1059.88,182.05,1094.81,214.32,1094.81,263.45ZM972,264c0,24.87,14.5,41.45,35.82,41.45,21,0,35.52-16.58,35.52-41.45,0-24.56-14.51-41.44-35.52-41.44C986.47,222.6,972,239.48,972,264Z" transform="translate(-16.5 -8.18)"/><path class="cls-1" d="M1283.08,343.37h-51.21v-21c-11.25,14.8-27.53,23.09-48,23.09-45,0-74.59-33.16-74.59-82.59,0-48.84,29.3-81.11,73.41-81.11,21,0,37.89,8.29,49.14,23.09v-81.1h51.21ZM1231.87,264c0-24.56-14.21-41.44-35.52-41.44s-35.52,16.88-35.82,41.44c.3,24.57,14.5,41.74,35.82,41.74S1231.87,288.61,1231.87,264Z" transform="translate(-16.5 -8.18)"/><path class="cls-1" d="M1466.6,239.18V343.37h-50V325c-10.37,13.62-27.24,20.72-48.85,20.72-34,0-54.76-20.72-54.76-50,0-30.2,21.61-48,61.28-48.25h42V245.1c0-15.69-10.36-25.16-31.08-25.16-13.32,0-30.79,4.74-47.66,13.32L1323,199.52c24.86-11.55,47.36-18.06,74-18.06C1440.85,181.46,1466.3,203.07,1466.6,239.18Zm-50.32,50V275H1384c-15.39,0-23.08,5.33-23.08,17.17,0,11.54,8.28,18.94,22.49,18.94C1399.41,311.11,1413,302.23,1416.28,289.21Z" transform="translate(-16.5 -8.18)"/><path class="cls-1" d="M1538.83,343.37l-60.09-159.54h52.69l34.33,112.78,34.64-112.78h50.91l-60.09,159.54Z" transform="translate(-16.5 -8.18)"/><path class="cls-1" d="M1701,320.88c0,14.8-10.36,24.86-24.86,24.86s-24.57-10.06-24.57-24.86c0-14.51,10.06-24.57,24.57-24.57S1701,306.37,1701,320.88Z" transform="translate(-16.5 -8.18)"/><path class="cls-1" d="M1835.73,334.79c-11.55,6.81-27.24,10.95-42.63,10.95-30.78,0-53-17.46-53-50.62V224.68h-22.2V191.23h22.2v-44.4H1791v44.1h41.74v33.75H1791v62.45c0,12.44,5.33,17.76,14.8,17.47,5.33,0,12.14-2.07,19.83-5.33Z" transform="translate(-16.5 -8.18)"/><path class="cls-1" d="M2011,277.37H1898.78c5,18.94,18.65,29.6,37.59,29.6,13.92,0,27.53-5.63,38.19-16.28L2001.5,317c-16.29,17.76-40.26,28.12-69.57,28.12-52.09,0-84.65-32.56-84.65-81.11,0-49.43,33.74-82,83.17-82C1986.69,182.05,2014.52,219.05,2011,277.37Zm-49.14-27.53c0-19.54-12.43-32.27-30.78-32.27-17.76,0-29.9,13-33.16,32.27Z" transform="translate(-16.5 -8.18)"/><path class="cls-1" d="M2179.39,217.87l-36.7,22.2a38.25,38.25,0,0,0-32.26-16.58c-19.84,0-33.45,16.28-33.45,40.26,0,24.57,13.61,40.55,33.45,40.55,14.5,0,25.75-5.92,32.56-18.05l37.29,21.9c-13,23.38-38.77,37-72.52,37-49.14,0-82.29-32.56-82.29-81.11,0-49.13,33.45-82,82.88-82C2140,182.05,2165.48,195.08,2179.39,217.87Z" transform="translate(-16.5 -8.18)"/><path class="cls-1" d="M2369.73,242.73V343.37h-51.21V256.94c0-18.65-10.65-30.19-28.12-30.19-20.13,0-32.56,16-32.56,37.89v78.73h-51.21V123.74h51.21v86.43c11.25-18.94,29.9-28.42,53.58-28.71C2346.64,181.46,2369.73,205.44,2369.73,242.73Z" transform="translate(-16.5 -8.18)"/></g></svg>