<svg id="Layer_1" data-name="Layer 1" xmlns="http://www.w3.org/2000/svg" viewBox="0 0 280.59 204.51"><defs><style>.cls-1{fill:#fff;stroke-linejoin:round;stroke-width:4px;fill-rule:evenodd;}.cls-1,.cls-2{stroke:#dd0b38;}.cls-2,.cls-3{fill:#d80027;}.cls-2{stroke-miterlimit:10;stroke-width:2px;}</style></defs><path id="CO" class="cls-1" d="M278.05,54,275.68,7.81l-11.32.34-57.51,2-5.66.17-4.72.11L126.33,11l-46.82-.41L21,9.08l-5.69-.3L15.08,15l-3.9,123.39-1.4,43.11-.54,18.71,0,6.14,7.34.18,119.23,1.84,52.43-.46,52.12-1.38,7.54-.3,4.72-.11,9.89-.47,4.72-.1,14.85-.6,3.76-.27-.34-4.7L279.11,75.38l-.76-13.88L278,57l0-3.07Z" transform="translate(-7.2 -5.81)"/><path class="cls-2" d="M27.74,79.86a1.52,1.52,0,0,1,1.51,1.51v1.34a16.22,16.22,0,0,1,6.07-1.34c4.54,0,4.57,3.43,7.58,3A37.74,37.74,0,0,0,49,83l0,10.5s-1.52,3-6.06,3-4.55-3-7.58-3c-4.55,0-6.07,3-6.07,3v10.61h-3V81.37A1.52,1.52,0,0,1,27.74,79.86Z" transform="translate(-7.2 -5.81)"/><path class="cls-3" d="M76.17,81.67v5.46A11,11,0,0,1,70.35,89a7.18,7.18,0,0,1-7.49-7.17c0-4.06,3.31-7.12,7.73-7.12a9,9,0,0,1,5.72,2.08l-2,2.42a5.75,5.75,0,0,0-3.74-1.52,4.16,4.16,0,0,0,0,8.32,6,6,0,0,0,2.48-.68V81.67Z" transform="translate(-7.2 -5.81)"/><path class="cls-3" d="M82.08,79.83a4,4,0,0,1,3.51-2V81c-2-.18-3.32.76-3.51,2.28v5.54H78.62V78h3.46Z" transform="translate(-7.2 -5.81)"/><path class="cls-3" d="M96.41,81.75v7H93V87.55A4,4,0,0,1,89.72,89c-2.3,0-3.7-1.41-3.7-3.39s1.46-3.24,4.15-3.26H93v-.16c0-1.06-.7-1.7-2.1-1.7a7.58,7.58,0,0,0-3.23.9l-1-2.28a11.39,11.39,0,0,1,5-1.22C94.67,77.85,96.39,79.31,96.41,81.75ZM93,85.13v-1H90.83c-1,0-1.57.36-1.57,1.16s.56,1.28,1.53,1.28A2.18,2.18,0,0,0,93,85.13Z" transform="translate(-7.2 -5.81)"/><path class="cls-3" d="M109.87,82v6.8h-3.44V83a1.84,1.84,0,0,0-1.9-2,2.21,2.21,0,0,0-2.21,2.18v5.7H98.86V78h3.46v1.76a4,4,0,0,1,3.61-1.92A3.79,3.79,0,0,1,109.87,82Z" transform="translate(-7.2 -5.81)"/><path class="cls-3" d="M123.19,88.79h-3.46V87.37a3.91,3.91,0,0,1-3.25,1.56c-3,0-5-2.24-5-5.58s2-5.48,5-5.48a4,4,0,0,1,3.33,1.56V74h3.46Zm-3.46-5.36c0-1.66-1-2.8-2.4-2.8s-2.41,1.14-2.43,2.8,1,2.82,2.43,2.82S119.73,85.09,119.73,83.43Z" transform="translate(-7.2 -5.81)"/><path class="cls-3" d="M138.87,84.25c0,3-1.86,4.71-4.85,4.71a6.2,6.2,0,0,1-4.82-2.25l1.64-2.38a4.49,4.49,0,0,0,2.94,1.56c.95,0,1.51-.58,1.51-1.72V77.65h-4.81V74.77h8.39Z" transform="translate(-7.2 -5.81)"/><path class="cls-3" d="M151.91,88.79h-3.46V87a3.8,3.8,0,0,1-3.51,1.92c-2.34,0-3.86-1.6-3.86-4.12V78h3.46v5.82c0,1.28.7,2.06,1.8,2.06,1.33,0,2.11-1.1,2.11-2.56V78h3.46Z" transform="translate(-7.2 -5.81)"/><path class="cls-3" d="M165.67,82v6.8h-3.44V83a1.84,1.84,0,0,0-1.91-2,2.2,2.2,0,0,0-2.2,2.18v5.7h-3.46V78h3.46v1.76a4,4,0,0,1,3.61-1.92A3.79,3.79,0,0,1,165.67,82Z" transform="translate(-7.2 -5.81)"/><path class="cls-3" d="M177.63,80.31l-2.48,1.5A2.6,2.6,0,0,0,173,80.69c-1.34,0-2.26,1.1-2.26,2.72s.92,2.74,2.26,2.74a2.37,2.37,0,0,0,2.21-1.22l2.52,1.48a5.3,5.3,0,0,1-4.91,2.51,5.52,5.52,0,1,1,0-11A5.39,5.39,0,0,1,177.63,80.31Z" transform="translate(-7.2 -5.81)"/><path class="cls-3" d="M186.32,88.21a5.87,5.87,0,0,1-2.88.75,3.25,3.25,0,0,1-3.58-3.43V80.77h-1.5V78.51h1.5v-3h3.44v3h2.82v2.28H183.3V85c0,.84.36,1.2,1,1.18a3.74,3.74,0,0,0,1.34-.36Z" transform="translate(-7.2 -5.81)"/><path class="cls-3" d="M191.62,74.91a1.82,1.82,0,1,1-1.82-1.82A1.76,1.76,0,0,1,191.62,74.91Zm-3.56,13.88V78h3.44V88.79Z" transform="translate(-7.2 -5.81)"/><path class="cls-3" d="M205.17,83.39c0,3.32-2.37,5.53-5.89,5.53s-5.9-2.21-5.9-5.53,2.36-5.5,5.9-5.5S205.17,80.07,205.17,83.39Zm-8.31,0c0,1.68,1,2.8,2.42,2.8s2.4-1.12,2.4-2.8-1-2.8-2.4-2.8A2.5,2.5,0,0,0,196.86,83.43Z" transform="translate(-7.2 -5.81)"/><path class="cls-3" d="M218,82v6.8h-3.44V83a1.84,1.84,0,0,0-1.9-2,2.2,2.2,0,0,0-2.2,2.18v5.7H207V78h3.46v1.76a4,4,0,0,1,3.6-1.92A3.79,3.79,0,0,1,218,82Z" transform="translate(-7.2 -5.81)"/><path class="cls-3" d="M223.18,87.27a2.37,2.37,0,0,1-.44,1.32l-1.46,2.12h-1.64l.9-2.13a1.51,1.51,0,0,1-.66-1.31,1.59,1.59,0,0,1,1.66-1.64A1.56,1.56,0,0,1,223.18,87.27Z" transform="translate(-7.2 -5.81)"/><path class="cls-3" d="M76,101l-2.06,2.44a4.79,4.79,0,0,0-3.52-1.82,4.09,4.09,0,0,0,0,8.18,5.25,5.25,0,0,0,3.52-1.64l2.08,2.2A8.46,8.46,0,0,1,70.23,113a7.12,7.12,0,0,1-7.37-7.21c0-4,3.22-7.08,7.49-7.08A8.13,8.13,0,0,1,76,101Z" transform="translate(-7.2 -5.81)"/><path class="cls-3" d="M88.25,107.39c0,3.32-2.36,5.53-5.88,5.53s-5.91-2.21-5.91-5.53,2.37-5.5,5.91-5.5S88.25,104.07,88.25,107.39Zm-8.3,0c0,1.68,1,2.8,2.42,2.8s2.4-1.12,2.4-2.8-1-2.8-2.4-2.8A2.5,2.5,0,0,0,80,107.43Z" transform="translate(-7.2 -5.81)"/><path class="cls-3" d="M90.2,112.79V98h3.47v14.84Z" transform="translate(-7.2 -5.81)"/><path class="cls-3" d="M107.41,107.39c0,3.32-2.36,5.53-5.88,5.53s-5.91-2.21-5.91-5.53,2.36-5.5,5.91-5.5S107.41,104.07,107.41,107.39Zm-8.31,0c0,1.68,1,2.8,2.43,2.8s2.4-1.12,2.4-2.8-1-2.8-2.4-2.8A2.5,2.5,0,0,0,99.1,107.43Z" transform="translate(-7.2 -5.81)"/><path class="cls-3" d="M112.72,103.83a4,4,0,0,1,3.51-2V105c-2-.18-3.33.76-3.51,2.28v5.54h-3.46V102h3.46Z" transform="translate(-7.2 -5.81)"/><path class="cls-3" d="M127.05,105.75v7h-3.39v-1.24a4,4,0,0,1-3.3,1.41c-2.3,0-3.7-1.41-3.7-3.39s1.46-3.24,4.14-3.26h2.84v-.16c0-1.06-.7-1.7-2.1-1.7a7.58,7.58,0,0,0-3.22.9l-1-2.28a11.38,11.38,0,0,1,5-1.22C125.31,101.85,127,103.31,127.05,105.75Zm-3.41,3.38v-1h-2.18c-1,0-1.56.36-1.56,1.16s.56,1.28,1.52,1.28A2.18,2.18,0,0,0,123.64,109.13Z" transform="translate(-7.2 -5.81)"/><path class="cls-3" d="M140.37,112.79H136.9v-1.42a3.9,3.9,0,0,1-3.24,1.56c-3,0-5-2.24-5-5.58s2-5.48,5-5.48a4,4,0,0,1,3.32,1.56V98h3.47Zm-3.47-5.36c0-1.66-1-2.8-2.4-2.8s-2.4,1.14-2.42,2.8,1,2.82,2.42,2.82S136.9,109.09,136.9,107.43Z" transform="translate(-7.2 -5.81)"/><path class="cls-3" d="M154.11,107.39c0,3.32-2.36,5.53-5.89,5.53s-5.9-2.21-5.9-5.53,2.36-5.5,5.9-5.5S154.11,104.07,154.11,107.39Zm-8.31,0c0,1.68,1,2.8,2.42,2.8s2.4-1.12,2.4-2.8-1-2.8-2.4-2.8A2.5,2.5,0,0,0,145.8,107.43Z" transform="translate(-7.2 -5.81)"/></svg>