<svg width="670" height="600" xmlns="http://www.w3.org/2000/svg" data-name="Layer 1">
 <g>
  <title>Layer 1</title>
  <path d="m633.31659,36.55249l-632.32337,0a1.0156,1.0156 0 0 1 0,-2.0307l632.32337,0a1.0156,1.0156 0 0 1 0,2.0307z" fill="#f0f0f0" id="svg_1" stroke="null"/>
  <ellipse cx="23.34831" cy="11.16881" rx="10.92534" ry="11.16881" fill="#3f3d56" id="svg_2" stroke="null"/>
  <ellipse cx="61.09038" cy="11.16881" rx="10.92534" ry="11.16881" fill="#3f3d56" id="svg_3" stroke="null"/>
  <ellipse cx="98.83246" cy="11.16881" rx="10.92534" ry="11.16881" fill="#3f3d56" id="svg_4" stroke="null"/>
  <path d="m610.69957,2.7683l-26.81,0a2.0304,2.0304 0 0 0 0,4.06l26.81,0a2.0304,2.0304 0 0 0 0,-4.06z" fill="#3f3d56" id="svg_5" stroke="null"/>
  <path d="m610.69957,10.3883l-26.81,0a2.0304,2.0304 0 0 0 0,4.06l26.81,0a2.0304,2.0304 0 0 0 0,-4.06z" fill="#3f3d56" id="svg_6" stroke="null"/>
  <path d="m610.69957,17.99828l-26.81,0a2.0304,2.0304 0 0 0 0,4.06l26.81,0a2.0304,2.0304 0 0 0 0,-4.06z" fill="#3f3d56" id="svg_7" stroke="null"/>
  <path d="m600.68804,70.83598l-575.94,0a12.048,12.048 0 0 0 -12.03,12.03l0,1.94a12.048,12.048 0 0 0 12.03,12.03l575.94,0a12.048,12.048 0 0 0 12.03,-12.03l0,-1.94a12.048,12.048 0 0 0 -12.03,-12.03z" fill="#f0f0f0" id="svg_8" stroke="null"/>
  <path d="m94.25338,88.63616l-54.82289,0a4.62947,4.62947 0 0 1 0,-9.25893l54.82289,0c5.97023,-0.08333 6.02994,9.34302 0,9.25893z" fill="#fff" id="svg_9" stroke="null"/>
  <path d="m258.25338,88.63616l-54.82289,0a4.62947,4.62947 0 0 1 0,-9.25893l54.82289,0c5.97023,-0.08333 6.02994,9.34302 0,9.25893z" fill="#fff" id="svg_10" stroke="null"/>
  <path d="m422.25338,88.63616l-54.82289,0a4.62947,4.62947 0 0 1 0,-9.25893l54.82289,0c5.97023,-0.08333 6.02994,9.34302 0,9.25893z" fill="#fff" id="svg_11" stroke="null"/>
  <path d="m577.75338,89.13616l-54.82289,0a4.62946,4.62946 0 0 1 0,-9.25893l54.82289,0c5.97023,-0.08333 6.02994,9.34302 0,9.25893z" fill="#d80027" id="svg_12" stroke="null"/>
  <rect x="490.21805" y="70.83595" width="2" height="26" fill="#fff" id="svg_13" stroke="null"/>
  <path d="m285.26314,455.64841l-235.0531,0a7.90878,7.90878 0 0 1 -7.89963,-7.89963l0,-34.42538a7.90879,7.90879 0 0 1 7.89963,-7.89964l235.0531,0a7.9088,7.9088 0 0 1 7.89964,7.89964l0,34.42538a7.90879,7.90879 0 0 1 -7.89964,7.89963z" fill="#f0f0f0" id="svg_14" stroke="null"/>
  <path d="m262.42483,450.31998l-206.88512,0a7.9088,7.9088 0 0 1 -7.89964,-7.89964l0,-23.7643a7.9088,7.9088 0 0 1 7.89964,-7.89964l224.395,0a7.90879,7.90879 0 0 1 7.89964,7.89964l0,6.25441a25.43817,25.43817 0 0 1 -25.40952,25.40953z" fill="#fff" id="svg_15" stroke="null"/>
  <path d="m191.06145,428.08714l-94.47341,0a2.03732,2.03732 0 1 1 0,-4.07464l94.47342,0a2.03732,2.03732 0 0 1 0,4.07464l-0.00001,0z" fill="#e6e6e6" id="svg_16" stroke="null"/>
  <path d="m238.88556,436.41985l-142.29752,0a2.03733,2.03733 0 1 1 0,-4.07465l142.29752,0a2.03733,2.03733 0 0 1 0,4.07465z" fill="#e6e6e6" id="svg_17" stroke="null"/>
  <path d="m300.27804,366.03609l-268.01009,0a8.07557,8.07557 0 0 1 -8.06636,-8.06636l0,-204.86758a8.07531,8.07531 0 0 1 8.06636,-8.06606l268.01009,0a8.07531,8.07531 0 0 1 8.06636,8.06606l0,204.86758a8.07557,8.07557 0 0 1 -8.06636,8.06636z" fill="#fff" id="svg_18" stroke="null"/>
  <path d="m300.2779,367.03609l-268.00977,0a9.077,9.077 0 0 1 -9.0664,-9.06641l0,-204.8677a9.07652,9.07652 0 0 1 9.0664,-9.06592l268.00977,0a9.07652,9.07652 0 0 1 9.0664,9.06592l0,204.8677a9.077,9.077 0 0 1 -9.0664,9.06641zm-268.00977,-221a7.07423,7.07423 0 0 0 -7.0664,7.06592l0,204.86767a7.07434,7.07434 0 0 0 7.0664,7.06641l268.00977,0a7.07434,7.07434 0 0 0 7.0664,-7.06641l0,-204.8677a7.07423,7.07423 0 0 0 -7.0664,-7.06592l-268.00977,0.00003z" fill="#f0f0f0" id="svg_19" stroke="null"/>
  <path d="m24.82063,327.03609l0,30.93379a7.45829,7.45829 0 0 0 7.44716,7.44716l268.01044,0a7.45829,7.45829 0 0 0 7.44717,-7.44716l0,-30.93379l-282.90477,0z" fill="#f0f0f0" id="svg_20" stroke="null"/>
  <rect x="26.22242" y="616.74153" width="1.99962" height="333.55961" fill="#f0f0f0" id="svg_21" transform="rotate(-57.3713 -402.073 382.342)" stroke="null"/>
  <rect x="-147.15796" y="531.32297" width="333.55961" height="1.99962" fill="#f0f0f0" id="svg_22" transform="rotate(-32.6287 -410.466 131.143)" stroke="null"/>
  <polygon points="545.364 587.788 532.974 587.787 527.079 539.998 545.366 539.999 545.364 587.788" fill="#a0616a" id="svg_23" stroke="null"/>
  <path d="m545.03362,583.73887l-13.22,-5.37l-0.39,-0.16l-7.3,5.53a15.54249,15.54249 0 0 0 -15.53,14.87c-0.02,0.22 -0.02,0.45 -0.02,0.68l0,0.51l39.95,0l0,-16.06l-3.49,0z" fill="#2f2e41" id="svg_24" stroke="null"/>
  <polygon points="516.348 576.258 504.66 580.37 483.238 537.245 500.488 531.177 516.348 576.258" fill="#a0616a" id="svg_25" stroke="null"/>
  <path d="m514.69293,572.54785l-14.2529,-0.67773l-0.421,-0.02152l-5.05069,7.63948a15.54248,15.54248 0 0 0 -9.71416,19.1816c0.05413,0.21415 0.13048,0.43115 0.20682,0.64809l0.16927,0.4811l37.68529,-13.2598l-5.33052,-15.14958l-3.29211,1.15836z" fill="#2f2e41" id="svg_26" stroke="null"/>
  <path d="m549.74216,381.7297c11.33506,-0.43955 -2.70631,89.88978 -2.70631,89.88978s4.10734,79.30546 3.23671,83.46726s-0.10978,15.38636 -0.10978,15.38636c-2.22075,-4.04192 -25.13224,-0.9914 -25.13224,-0.9914l-3.11682,-80.37587l-15.91342,-64.39953l-22.06224,43.168l21.14563,66.26061s8.56336,7.92394 7.65278,11.0553s-23.341,10.19318 -27.46279,10.353s-2.26071,-5.07241 -2.46051,-10.22468s-19.59569,-52.90457 -26.41781,-69.1522s-1.51846,-39.15745 1.964,-55.80468s21.80339,-47.88859 21.80339,-47.88859c22.74157,-25.65008 58.24434,9.6962 69.57941,9.25664z" fill="#2f2e41" id="svg_27" stroke="null"/>
  <path d="m411.6047,308.73153a9.15861,9.15861 0 0 0 13.72045,2.99545l27.25821,17.784l-0.083,-16.91272l-25.87216,-14.29508a9.20824,9.20824 0 0 0 -15.0235,10.42835z" fill="#a0616a" id="svg_28" stroke="null"/>
  <path d="m543.85516,396.2104c-28.10986,0.001 -43.60059,-5.626 -51.82666,-10.65039c-10.05859,-6.14356 -11.77978,-12.62207 -11.84814,-12.89551l-0.02,-0.07812l0.979,-12.32032l0.42822,-0.959a19.50463,19.50463 0 0 0 0.73438,-14.00684l-0.03076,-0.09472l0.00781,-0.09864l6.57275,-85.24462l23.25977,-7.61915l6.7666,-6.79882l30.12744,-0.437l4.19776,8.51025l23.751,8.94141l-11.66851,69.45655l-5.59375,9.6416l2.25097,10.5029l-0.01562,0.09473l-7.33838,43.7998l-0.40381,0.01758q-5.4287,0.2432 -10.33007,0.23831z" fill="#3f3d56" id="svg_29" stroke="null"/>
  <path d="m471.13304,343.02876l-11.02783,-6.53809l-0.69092,-0.998a15.7342,15.7342 0 0 0 -12.4541,-6.74805l-0.12842,-0.00391l-15.18852,-8.92973l6.2959,-18.44336l23.81,7.03418l16.59961,-41.24463a13.19911,13.19911 0 0 1 23.47559,-2.00635a13.62434,13.62434 0 0 1 1.96728,7.20508l0,26.9873l-0.09961,0.13379l-32.55898,43.55177z" fill="#3f3d56" id="svg_30" stroke="null"/>
  <path d="m544.86012,380.34762a9.15863,9.15863 0 0 1 12.18666,-6.97916l20.656,-25.15175l5.002,16.15634l-20.38215,21.40758a9.20824,9.20824 0 0 1 -17.46248,-5.433l-0.00003,-0.00001z" fill="#a0616a" id="svg_31" stroke="null"/>
  <path d="m575.74432,377.16938l-13.71628,-13.71777l8.73145,-21.27441l12.65381,-17.27832c-13.48389,-6.56446 -23.60547,-22.11524 -30.93946,-34.98828l-0.08252,-0.14454l1.82618,-14.30371a18.367,18.367 0 0 1 3.87353,-9.14306a18.36952,18.36952 0 0 1 29.90869,1.709l24.5918,54.66846l-0.27686,0.41308l-19.78027,33.71875l-5.39844,3.501l-11.39163,16.8398z" fill="#3f3d56" id="svg_32" stroke="null"/>
  <path d="m555.57309,216.33271a25.10467,25.10467 0 0 1 -49.75065,-6.77109l0.0485,-0.35635a25.10467,25.10467 0 0 1 49.69445,7.12639l0.0077,0.00105z" fill="#a0616a" id="svg_33" stroke="null"/>
  <path d="m549.18362,229.26346c1.28921,-2.61883 2.61359,-5.43045 2.25128,-8.32684s-3.20276,-5.66484 -5.99192,-4.80406c-1.66786,0.51473 -2.92844,2.16171 -4.67189,2.246c-2.39885,0.116 -3.77423,-2.62948 -4.5209,-4.91211l-3.041,-9.29657a25.15357,25.15357 0 0 1 -20.89111,4.72079c-2.82347,-0.64554 -5.67592,-1.90416 -7.33216,-4.28021s-1.64627,-6.0617 0.6254,-7.85842c1.11387,-0.881 2.59642,-1.2157 3.66088,-2.15577a4.10217,4.10217 0 0 0 -3.27565,-7.13851l7.65693,-0.957l-2.28138,-4.12614a7.535,7.535 0 0 0 5.99172,1.0992c2.06,-0.37093 4.0002,-1.21914 6.01549,-1.78479a23.15188,23.15188 0 0 1 25.75441,10.81464a9.80176,9.80176 0 0 1 10.687,3.08588c2.04974,2.60156 2.60717,6.07331 2.68659,9.38439a40.71463,40.71463 0 0 1 -4.15033,18.86012a15.45115,15.45115 0 0 1 -3.48657,4.94577a6.97822,6.97822 0 0 1 -5.60143,1.83184" fill="#2f2e41" id="svg_34" stroke="null"/>
  <path d="m142.37323,203.43325a38.99224,38.99224 0 0 0 5.03952,16.61592c6.12735,10.761 16.635,18.55205 27.952,23.183c14.13887,5.78576 29.89994,5.964 44.905,4.67391c13.93671,-1.19822 27.73161,-3.9757 41.71968,-4.54814a290.67425,290.67425 0 0 1 32.435,0.77368c20.93161,1.48566 41.77624,4.2422 62.48665,7.58393q8.41338,1.34092 16.79136,2.8814a8.30457,8.30457 0 0 1 1.55945,0.28974c0.10141,0.04156 0.26448,0.00913 0.35732,0.06753c0.16859,0.10618 -0.682,-0.26919 -0.16638,0.15694a15.47381,15.47381 0 0 1 1.91221,2.46082l7.64885,9.84331c2.19349,2.82282 4.22918,6.25235 7.064,8.4773a12.79059,12.79059 0 0 0 14.15922,0.98683a14.14994,14.14994 0 0 0 5.26533,-5.981a51.61658,51.61658 0 0 1 6.26129,-9.03759c9.09984,-10.61576 21.74694,-17.14527 32.32494,-26.07738a57.57506,57.57506 0 0 0 12.92811,-14.77806a41.79039,41.79039 0 0 0 5.34147,-16.5949c1.26668,-11.87124 -2.37608,-23.97752 -8.50294,-34.07663a68.07168,68.07168 0 0 0 -27.63411,-25.2936c-12.802,-6.52219 -26.968,-9.69913 -41.16812,-11.28228c-15.07643,-1.68086 -30.32813,-1.67562 -45.47815,-1.50592q-25.50363,0.28389 -50.91513,2.24306q-25.44586,1.96956 -50.69115,5.59916c-16.14935,2.32185 -32.496,4.74188 -48.30385,8.85022c-13.96486,3.62937 -27.89045,9.30228 -38.31857,19.58089c-9.272,9.13914 -15.72087,21.64546 -14.973,34.90786z" fill="#d80027" id="svg_35" stroke="null"/>
  <path d="m220.4336,207.20967a5.00673,5.00673 0 0 1 -4.74267,-5.62432l0.35883,-2.82483a3.37273,3.37273 0 0 0 -1.0977,-2.937l-2.12184,-1.896a4.99256,4.99256 0 0 1 2.395,-8.62841l2.79727,-0.53131a3.36716,3.36716 0 0 0 2.45306,-1.94914l1.14815,-2.60739a4.99375,4.99375 0 0 1 8.94657,-0.38788l1.3687,2.496a3.3679,3.3679 0 0 0 2.6145,1.73263l2.83185,0.2861a4.99272,4.99272 0 0 1 3.1339,8.38851l-1.95031,2.07351a3.36148,3.36148 0 0 0 -0.83849,3.01891l0.60171,2.78437a4.9927,4.9927 0 0 1 -7.00862,5.57168l-2.57528,-1.21347a3.35983,3.35983 0 0 0 -3.13216,0.13461l-2.46066,1.43289a4.99889,4.99889 0 0 1 -2.72181,0.68054z" fill="#fff" id="svg_36" stroke="null"/>
  <path d="m260.52904,206.04516a5.04346,5.04346 0 0 1 -3.36337,-1.50156a5.17347,5.17347 0 0 1 -1.35388,-4.32291l0.32924,-2.5919a3.43188,3.43188 0 0 0 -1.11784,-2.99155l-1.96831,-1.7588a5.13349,5.13349 0 0 1 -1.79914,-4.0285a4.99124,4.99124 0 0 1 4.06492,-4.71539l2.76479,-0.52514a3.43125,3.43125 0 0 0 2.5,-1.98821l1.03031,-2.33979a5.22514,5.22514 0 0 1 4.40614,-3.20619a4.96762,4.96762 0 0 1 4.64379,2.58361l1.35279,2.467a3.43328,3.43328 0 0 0 2.66529,1.76515l2.62461,0.26516a5.13094,5.13094 0 0 1 3.82473,2.20359a4.99253,4.99253 0 0 1 -0.51847,6.20233l-1.92768,2.04945a3.43035,3.43035 0 0 0 -0.85423,3.07484l0.55556,2.57084a5.15516,5.15516 0 0 1 -0.90576,4.31869a4.97984,4.97984 0 0 1 -6.06361,1.43465l-2.54866,-1.20092a3.4292,3.4292 0 0 0 -3.18733,0.13869l-2.4321,1.41627a4.999,4.999 0 0 1 -2.72179,0.68059z" fill="#fff" id="svg_37" stroke="null"/>
  <path d="m300.72818,205.87525a5.00673,5.00673 0 0 1 -4.74267,-5.62433l0.35882,-2.82482a3.3727,3.3727 0 0 0 -1.09769,-2.937l-2.12185,-1.896a4.99258,4.99258 0 0 1 2.395,-8.62842l2.79727,-0.53131a3.36713,3.36713 0 0 0 2.45306,-1.94913l1.14814,-2.60739a4.99376,4.99376 0 0 1 8.94658,-0.38789l1.3687,2.496a3.3679,3.3679 0 0 0 2.61449,1.73263l2.83186,0.2861a4.99272,4.99272 0 0 1 3.1339,8.3885l-1.95031,2.07352a3.36142,3.36142 0 0 0 -0.83849,3.0189l0.6017,2.78437a4.99269,4.99269 0 0 1 -7.00862,5.57168l-2.57527,-1.21346a3.35979,3.35979 0 0 0 -3.13217,0.13461l-2.46065,1.43289a4.999,4.999 0 0 1 -2.7218,0.68055z" fill="#fff" id="svg_38" stroke="null"/>
  <path d="m339.82904,204.81444a5.00674,5.00674 0 0 1 -4.74267,-5.62432l0.35883,-2.82483a3.37275,3.37275 0 0 0 -1.09769,-2.937l-2.12185,-1.896a4.99256,4.99256 0 0 1 2.395,-8.62841l2.79728,-0.53131a3.36713,3.36713 0 0 0 2.453,-1.94914l1.14815,-2.60739a4.99376,4.99376 0 0 1 8.94658,-0.38788l1.3687,2.496a3.36789,3.36789 0 0 0 2.61449,1.73263l2.83186,0.2861a4.99272,4.99272 0 0 1 3.1339,8.38851l-1.95032,2.07351a3.36145,3.36145 0 0 0 -0.83848,3.01891l0.6017,2.78437a4.99269,4.99269 0 0 1 -7.00862,5.57168l-2.57527,-1.21347a3.35985,3.35985 0 0 0 -3.13217,0.13461l-2.46065,1.4329a4.999,4.999 0 0 1 -2.72177,0.68053z" id="svg_39" stroke="null" fill="#fff"/>
  <path d="m378.92983,203.75364a5.00675,5.00675 0 0 1 -4.74267,-5.62433l0.35883,-2.82482a3.37276,3.37276 0 0 0 -1.09769,-2.937l-2.12185,-1.896a4.99256,4.99256 0 0 1 2.395,-8.62841l2.79728,-0.53131a3.36712,3.36712 0 0 0 2.453,-1.94913l1.14815,-2.6074a4.99376,4.99376 0 0 1 8.94658,-0.38788l1.36869,2.49605a3.368,3.368 0 0 0 2.6145,1.73263l2.83186,0.2861a4.99272,4.99272 0 0 1 3.1339,8.3885l-1.95032,2.07352a3.36142,3.36142 0 0 0 -0.83848,3.0189l0.6017,2.78437a4.99269,4.99269 0 0 1 -7.00862,5.57168l-2.57527,-1.21346a3.35979,3.35979 0 0 0 -3.13217,0.13461l-2.46066,1.43289a4.999,4.999 0 0 1 -2.72176,0.68049z" id="svg_40" stroke="null" fill="#fff"/>
  <path d="m628.04171,537.36942l1.14386,-25.71944a83.06565,83.06565 0 0 1 38.74475,-9.8078c-18.60845,15.21374 -16.283,44.54071 -28.899,64.99963a49.96442,49.96442 0 0 1 -36.63939,23.08917l-15.5722,9.53437a83.72447,83.72447 0 0 1 17.647,-67.8451a80.87424,80.87424 0 0 1 14.863,-13.81018c3.7295,9.83419 8.71198,19.55935 8.71198,19.55935z" fill="#f2f2f2" id="svg_41"/>
 </g>

</svg>